<svg width="1440" height="240" viewBox="0 0 1440 240" fill="none" xmlns="http://www.w3.org/2000/svg" preserveAspectRatio="xMidYMax slice" aria-hidden="true">
  <defs>
    <linearGradient id="bldg" x1="0" y1="0" x2="0" y2="240" gradientUnits="userSpaceOnUse">
      <stop stop-color="#1b3860" stop-opacity="0.55"/>
      <stop offset="1" stop-color="#0B1D33" stop-opacity="0"/>
    </linearGradient>
    <linearGradient id="bldg2" x1="0" y1="0" x2="0" y2="240" gradientUnits="userSpaceOnUse">
      <stop stop-color="#12294a" stop-opacity="0.8"/>
      <stop offset="1" stop-color="#0B1D33" stop-opacity="0"/>
    </linearGradient>
  </defs>
  <!-- far layer -->
  <g fill="url(#bldg)">
    <rect x="40" y="120" width="70" height="120"/><rect x="130" y="90" width="54" height="150"/>
    <rect x="205" y="140" width="80" height="100"/><rect x="300" y="70" width="48" height="170"/>
    <rect x="365" y="130" width="66" height="110"/><rect x="450" y="100" width="58" height="140"/>
    <rect x="900" y="110" width="64" height="130"/><rect x="980" y="80" width="50" height="160"/>
    <rect x="1050" y="140" width="78" height="100"/><rect x="1145" y="95" width="52" height="145"/>
    <rect x="1215" y="125" width="70" height="115"/><rect x="1300" y="85" width="56" height="155"/>
  </g>
  <!-- near layer -->
  <g fill="url(#bldg2)">
    <rect x="90" y="150" width="60" height="90"/><rect x="250" y="110" width="70" height="130"/>
    <rect x="410" y="160" width="64" height="80"/><rect x="520" y="60" width="60" height="180"/>
    <rect x="590" y="130" width="80" height="110"/><rect x="690" y="95" width="56" height="145"/>
    <rect x="760" y="150" width="74" height="90"/><rect x="850" y="115" width="60" height="125"/>
    <rect x="1000" y="155" width="66" height="85"/><rect x="1120" y="135" width="72" height="105"/>
    <rect x="1260" y="150" width="64" height="90"/><rect x="1350" y="120" width="58" height="120"/>
  </g>
  <!-- gold-lit windows -->
  <g fill="#C79A4A" opacity="0.85">
    <rect x="536" y="80" width="6" height="8"/><rect x="552" y="80" width="6" height="8"/>
    <rect x="536" y="100" width="6" height="8"/><rect x="552" y="100" width="6" height="8"/>
    <rect x="705" y="115" width="6" height="8"/><rect x="720" y="115" width="6" height="8"/>
    <rect x="705" y="135" width="6" height="8"/>
    <rect x="312" y="90" width="5" height="7"/><rect x="325" y="90" width="5" height="7"/>
    <rect x="994" y="100" width="5" height="7"/><rect x="1008" y="100" width="5" height="7"/>
    <rect x="1316" y="105" width="5" height="7"/>
  </g>
</svg>
